<svg width="50" height="50" viewBox="0 0 50 50" fill="none" xmlns="http://www.w3.org/2000/svg">
<rect opacity="0.2" y="-0.000244141" width="50" height="50" rx="10" fill="black"/>
<path fill-rule="evenodd" clip-rule="evenodd" d="M18.9731 13.2052C18.2447 13.5791 17.9116 14.3807 18.1466 15.1944C18.2317 15.4895 18.37 15.7017 18.6727 16.0021C18.8986 16.2262 21.2599 18.3266 23.9202 20.6698C26.5804 23.0129 28.7551 24.9546 28.7528 24.9847C28.7506 25.0148 26.5972 26.9304 23.9676 29.2416C17.9321 34.5464 18.2221 34.2734 18.0729 34.7903C17.6549 36.2388 19.1157 37.5047 20.3897 36.7981C20.8476 36.5442 32.4247 26.3098 32.6905 25.9239C33.1822 25.2104 33.0825 24.3588 32.4309 23.7058C32.2265 23.5009 29.4664 21.0495 26.2974 18.2582C21.9749 14.451 20.4587 13.1596 20.2278 13.0883C19.7558 12.9426 19.4245 12.9735 18.9731 13.2052Z" fill="white"/>
</svg>
